<svg xmlns="http://www.w3.org/2000/svg" width="32" height="40" viewBox="0 0 32 40" fill="none" aria-label="Könyvtár pin">
  <path d="M16 40 L8 24 L24 24 Z" fill="#92400E" stroke="#451A03" stroke-width="1.5" stroke-linejoin="round"/>
  <path d="M16 2 C8.27 2 2 8.27 2 16 C2 24 16 24 16 24 C16 24 30 24 30 16 C30 8.27 23.73 2 16 2 Z"
        fill="#92400E" stroke="#451A03" stroke-width="1.5" stroke-linejoin="round"/>
  <!-- Book-open icon -->
  <g transform="translate(7 8)" fill="none" stroke="#FEF3C7" stroke-width="1.5" stroke-linecap="round" stroke-linejoin="round">
    <path d="M9 3 V14"/>
    <path d="M9 3 C6 3 3 4 2 5 V15 C3 14 6 13 9 14"/>
    <path d="M9 3 C12 3 15 4 16 5 V15 C15 14 12 13 9 14"/>
  </g>
</svg>